<svg width="154" height="85" viewBox="0 0 154 85" fill="none" xmlns="http://www.w3.org/2000/svg">
<path d="M9.24 22.192C7.64 22.192 6.248 21.84 5.064 21.136C3.896 20.432 2.992 19.432 2.352 18.136C1.712 16.84 1.392 15.312 1.392 13.552C1.392 11.776 1.704 10.24 2.328 8.944C2.968 7.632 3.88 6.632 5.064 5.944C6.248 5.24 7.64 4.888 9.24 4.888C10.856 4.888 12.256 5.24 13.44 5.944C14.624 6.632 15.528 7.632 16.152 8.944C16.792 10.24 17.112 11.768 17.112 13.528C17.112 15.288 16.792 16.824 16.152 18.136C15.528 19.432 14.624 20.432 13.44 21.136C12.256 21.84 10.856 22.192 9.24 22.192ZM9.24 20.176C10.936 20.176 12.256 19.6 13.2 18.448C14.144 17.296 14.616 15.656 14.616 13.528C14.616 11.4 14.144 9.768 13.2 8.632C12.272 7.48 10.952 6.904 9.24 6.904C7.56 6.904 6.248 7.48 5.304 8.632C4.376 9.768 3.912 11.4 3.912 13.528C3.912 15.656 4.376 17.296 5.304 18.448C6.248 19.6 7.56 20.176 9.24 20.176ZM29.2676 10.048C29.6356 10.048 29.9236 10.152 30.1316 10.36C30.3556 10.568 30.4676 10.856 30.4676 11.224V20.992C30.4676 21.328 30.3556 21.6 30.1316 21.808C29.9076 22.016 29.6116 22.12 29.2436 22.12C28.9076 22.12 28.6356 22.024 28.4276 21.832C28.2196 21.624 28.1156 21.352 28.1156 21.016V20.104C27.7476 20.776 27.2356 21.288 26.5796 21.64C25.9396 21.992 25.2196 22.168 24.4196 22.168C21.5716 22.168 20.1476 20.6 20.1476 17.464V11.224C20.1476 10.856 20.2516 10.568 20.4596 10.36C20.6836 10.152 20.9876 10.048 21.3716 10.048C21.7396 10.048 22.0276 10.152 22.2356 10.36C22.4596 10.568 22.5716 10.856 22.5716 11.224V17.44C22.5716 18.384 22.7636 19.08 23.1476 19.528C23.5316 19.976 24.1236 20.2 24.9236 20.2C25.8676 20.2 26.6196 19.896 27.1796 19.288C27.7556 18.68 28.0436 17.872 28.0436 16.864V11.224C28.0436 10.872 28.1556 10.592 28.3796 10.384C28.6036 10.16 28.8996 10.048 29.2676 10.048ZM39.5957 20.272C39.9477 20.304 40.1957 20.4 40.3397 20.56C40.4997 20.704 40.5797 20.912 40.5797 21.184C40.5797 21.504 40.4517 21.752 40.1957 21.928C39.9557 22.088 39.5957 22.152 39.1157 22.12L38.4677 22.072C37.1717 21.976 36.2037 21.584 35.5637 20.896C34.9237 20.192 34.6037 19.16 34.6037 17.8V12.16H33.1637C32.4597 12.16 32.1077 11.848 32.1077 11.224C32.1077 10.936 32.1957 10.712 32.3717 10.552C32.5637 10.376 32.8277 10.288 33.1637 10.288H34.6037V7.816C34.6037 7.448 34.7077 7.16 34.9157 6.952C35.1397 6.744 35.4357 6.64 35.8037 6.64C36.1717 6.64 36.4677 6.744 36.6917 6.952C36.9157 7.16 37.0277 7.448 37.0277 7.816V10.288H39.4037C39.7397 10.288 39.9957 10.376 40.1717 10.552C40.3637 10.712 40.4597 10.936 40.4597 11.224C40.4597 11.528 40.3637 11.76 40.1717 11.92C39.9957 12.08 39.7397 12.16 39.4037 12.16H37.0277V17.968C37.0277 18.72 37.1797 19.272 37.4837 19.624C37.8037 19.976 38.2837 20.176 38.9237 20.224L39.5957 20.272ZM51.8966 4.96C52.2646 4.96 52.5606 5.064 52.7846 5.272C53.0086 5.48 53.1206 5.76 53.1206 6.112V20.944C53.1206 21.312 53.0086 21.6 52.7846 21.808C52.5766 22.016 52.2886 22.12 51.9206 22.12C51.5526 22.12 51.2566 22.016 51.0326 21.808C50.8246 21.6 50.7206 21.312 50.7206 20.944V19.984C50.3686 20.688 49.8566 21.232 49.1846 21.616C48.5126 21.984 47.7366 22.168 46.8566 22.168C45.8486 22.168 44.9446 21.912 44.1446 21.4C43.3606 20.888 42.7446 20.168 42.2966 19.24C41.8646 18.312 41.6486 17.248 41.6486 16.048C41.6486 14.832 41.8646 13.768 42.2966 12.856C42.7446 11.944 43.3606 11.24 44.1446 10.744C44.9286 10.248 45.8326 10 46.8566 10C47.7366 10 48.5046 10.192 49.1606 10.576C49.8326 10.944 50.3446 11.472 50.6966 12.16V6.064C50.6966 5.728 50.8006 5.464 51.0086 5.272C51.2326 5.064 51.5286 4.96 51.8966 4.96ZM47.4326 20.248C48.4726 20.248 49.2806 19.888 49.8566 19.168C50.4326 18.448 50.7206 17.424 50.7206 16.096C50.7206 14.768 50.4326 13.744 49.8566 13.024C49.2966 12.304 48.4886 11.944 47.4326 11.944C46.3766 11.944 45.5526 12.304 44.9606 13.024C44.3846 13.728 44.0966 14.736 44.0966 16.048C44.0966 17.36 44.3926 18.392 44.9846 19.144C45.5766 19.88 46.3926 20.248 47.4326 20.248ZM61.5883 22.168C60.4363 22.168 59.4203 21.92 58.5403 21.424C57.6763 20.928 57.0043 20.224 56.5243 19.312C56.0603 18.384 55.8283 17.312 55.8283 16.096C55.8283 14.864 56.0603 13.792 56.5243 12.88C57.0043 11.952 57.6763 11.24 58.5403 10.744C59.4203 10.248 60.4363 10 61.5883 10C62.7403 10 63.7483 10.248 64.6123 10.744C65.4923 11.24 66.1643 11.952 66.6283 12.88C67.1083 13.792 67.3483 14.864 67.3483 16.096C67.3483 17.312 67.1083 18.384 66.6283 19.312C66.1643 20.224 65.4923 20.928 64.6123 21.424C63.7483 21.92 62.7403 22.168 61.5883 22.168ZM61.5883 20.248C62.6603 20.248 63.4763 19.896 64.0363 19.192C64.6123 18.488 64.9003 17.456 64.9003 16.096C64.9003 14.752 64.6123 13.728 64.0363 13.024C63.4603 12.304 62.6443 11.944 61.5883 11.944C60.5323 11.944 59.7163 12.304 59.1403 13.024C58.5643 13.728 58.2763 14.752 58.2763 16.096C58.2763 17.456 58.5563 18.488 59.1163 19.192C59.6923 19.896 60.5163 20.248 61.5883 20.248ZM75.1352 22.168C73.9832 22.168 72.9672 21.92 72.0872 21.424C71.2232 20.928 70.5512 20.224 70.0712 19.312C69.6072 18.384 69.3752 17.312 69.3752 16.096C69.3752 14.864 69.6072 13.792 70.0712 12.88C70.5512 11.952 71.2232 11.24 72.0872 10.744C72.9672 10.248 73.9832 10 75.1352 10C76.2872 10 77.2952 10.248 78.1592 10.744C79.0392 11.24 79.7112 11.952 80.1752 12.88C80.6552 13.792 80.8952 14.864 80.8952 16.096C80.8952 17.312 80.6552 18.384 80.1752 19.312C79.7112 20.224 79.0392 20.928 78.1592 21.424C77.2952 21.92 76.2872 22.168 75.1352 22.168ZM75.1352 20.248C76.2072 20.248 77.0232 19.896 77.5832 19.192C78.1592 18.488 78.4472 17.456 78.4472 16.096C78.4472 14.752 78.1592 13.728 77.5832 13.024C77.0072 12.304 76.1912 11.944 75.1352 11.944C74.0792 11.944 73.2632 12.304 72.6872 13.024C72.1112 13.728 71.8232 14.752 71.8232 16.096C71.8232 17.456 72.1032 18.488 72.6632 19.192C73.2392 19.896 74.0632 20.248 75.1352 20.248ZM89.7381 10.048C90.5061 10 90.8901 10.328 90.8901 11.032C90.8901 11.384 90.8021 11.648 90.6261 11.824C90.4501 12 90.1461 12.104 89.7141 12.136L88.9941 12.208C87.9861 12.304 87.2341 12.656 86.7381 13.264C86.2581 13.872 86.0181 14.608 86.0181 15.472V20.968C86.0181 21.352 85.9061 21.64 85.6821 21.832C85.4581 22.024 85.1701 22.12 84.8181 22.12C84.4661 22.12 84.1701 22.024 83.9301 21.832C83.7061 21.64 83.5941 21.352 83.5941 20.968V11.2C83.5941 10.832 83.7061 10.552 83.9301 10.36C84.1701 10.152 84.4661 10.048 84.8181 10.048C85.1381 10.048 85.4021 10.152 85.6101 10.36C85.8341 10.552 85.9461 10.824 85.9461 11.176V12.328C86.2661 11.624 86.7301 11.088 87.3381 10.72C87.9461 10.352 88.6341 10.136 89.4021 10.072L89.7381 10.048ZM100.223 22.12C99.8553 22.12 99.5593 22.008 99.3353 21.784C99.1113 21.56 98.9993 21.256 98.9993 20.872V6.28C98.9993 5.912 99.1033 5.624 99.3113 5.416C99.5353 5.192 99.8393 5.08 100.223 5.08H106.007C107.799 5.08 109.191 5.52 110.183 6.4C111.175 7.28 111.671 8.528 111.671 10.144C111.671 11.744 111.175 12.992 110.183 13.888C109.191 14.784 107.799 15.232 106.007 15.232H101.471V20.872C101.471 21.256 101.359 21.56 101.135 21.784C100.927 22.008 100.623 22.12 100.223 22.12ZM105.743 13.24C108.111 13.24 109.295 12.208 109.295 10.144C109.295 8.096 108.111 7.072 105.743 7.072H101.471V13.24H105.743ZM115.592 22.12C115.24 22.12 114.944 22.024 114.704 21.832C114.48 21.64 114.368 21.352 114.368 20.968V6.136C114.368 5.752 114.48 5.464 114.704 5.272C114.944 5.064 115.24 4.96 115.592 4.96C115.944 4.96 116.232 5.064 116.456 5.272C116.68 5.464 116.792 5.752 116.792 6.136V20.968C116.792 21.352 116.68 21.64 116.456 21.832C116.232 22.024 115.944 22.12 115.592 22.12ZM125.1 10C126.652 10 127.804 10.392 128.556 11.176C129.324 11.96 129.708 13.152 129.708 14.752V20.968C129.708 21.336 129.604 21.624 129.396 21.832C129.188 22.024 128.9 22.12 128.532 22.12C128.18 22.12 127.9 22.016 127.692 21.808C127.484 21.6 127.38 21.32 127.38 20.968V20.08C127.076 20.752 126.62 21.272 126.012 21.64C125.42 21.992 124.724 22.168 123.924 22.168C123.156 22.168 122.452 22.016 121.812 21.712C121.188 21.392 120.692 20.96 120.324 20.416C119.956 19.872 119.772 19.256 119.772 18.568C119.756 17.704 119.972 17.032 120.42 16.552C120.868 16.056 121.596 15.704 122.604 15.496C123.612 15.272 125.012 15.16 126.804 15.16H127.356V14.464C127.356 13.568 127.172 12.92 126.804 12.52C126.436 12.12 125.844 11.92 125.028 11.92C124.468 11.92 123.94 11.992 123.444 12.136C122.948 12.28 122.404 12.488 121.812 12.76C121.38 13 121.076 13.12 120.9 13.12C120.66 13.12 120.46 13.032 120.3 12.856C120.156 12.68 120.084 12.456 120.084 12.184C120.084 11.944 120.148 11.736 120.276 11.56C120.42 11.368 120.644 11.184 120.948 11.008C121.508 10.704 122.164 10.464 122.916 10.288C123.668 10.096 124.396 10 125.1 10ZM124.356 20.368C125.236 20.368 125.956 20.072 126.516 19.48C127.076 18.872 127.356 18.096 127.356 17.152V16.528H126.924C125.676 16.528 124.716 16.584 124.044 16.696C123.372 16.808 122.892 17 122.604 17.272C122.316 17.528 122.172 17.904 122.172 18.4C122.172 18.976 122.38 19.448 122.796 19.816C123.212 20.184 123.732 20.368 124.356 20.368ZM139.336 10C142.136 10 143.536 11.576 143.536 14.728V20.968C143.536 21.336 143.424 21.624 143.2 21.832C142.992 22.024 142.696 22.12 142.312 22.12C141.944 22.12 141.648 22.016 141.424 21.808C141.216 21.6 141.112 21.32 141.112 20.968V14.848C141.112 13.856 140.912 13.128 140.512 12.664C140.128 12.2 139.52 11.968 138.688 11.968C137.712 11.968 136.928 12.272 136.336 12.88C135.744 13.488 135.448 14.304 135.448 15.328V20.968C135.448 21.32 135.336 21.6 135.112 21.808C134.904 22.016 134.616 22.12 134.248 22.12C133.88 22.12 133.584 22.016 133.36 21.808C133.136 21.6 133.024 21.32 133.024 20.968V11.2C133.024 10.864 133.136 10.592 133.36 10.384C133.6 10.16 133.896 10.048 134.248 10.048C134.6 10.048 134.88 10.152 135.088 10.36C135.296 10.568 135.4 10.84 135.4 11.176V12.16C135.784 11.456 136.32 10.92 137.008 10.552C137.696 10.184 138.472 10 139.336 10ZM152.588 20.272C152.94 20.304 153.188 20.4 153.332 20.56C153.492 20.704 153.572 20.912 153.572 21.184C153.572 21.504 153.444 21.752 153.188 21.928C152.948 22.088 152.588 22.152 152.108 22.12L151.46 22.072C150.164 21.976 149.196 21.584 148.556 20.896C147.916 20.192 147.596 19.16 147.596 17.8V12.16H146.156C145.452 12.16 145.1 11.848 145.1 11.224C145.1 10.936 145.188 10.712 145.364 10.552C145.556 10.376 145.82 10.288 146.156 10.288H147.596V7.816C147.596 7.448 147.7 7.16 147.908 6.952C148.132 6.744 148.428 6.64 148.796 6.64C149.164 6.64 149.46 6.744 149.684 6.952C149.908 7.16 150.02 7.448 150.02 7.816V10.288H152.396C152.732 10.288 152.988 10.376 153.164 10.552C153.356 10.712 153.452 10.936 153.452 11.224C153.452 11.528 153.356 11.76 153.164 11.92C152.988 12.08 152.732 12.16 152.396 12.16H150.02V17.968C150.02 18.72 150.172 19.272 150.476 19.624C150.796 19.976 151.276 20.176 151.916 20.224L152.588 20.272Z" fill="#1A1A1A"/>
<path d="M8.00002 50.1735L3.29802 52.8055L4.34802 47.5202L0.391357 43.8615L5.74269 43.2268L8.00002 38.3335L10.2574 43.2268L15.6087 43.8615L11.652 47.5202L12.702 52.8055L8.00002 50.1735Z" fill="#F4C300"/>
<path d="M28 50.1735L23.298 52.8055L24.348 47.5202L20.3914 43.8615L25.7427 43.2268L28 38.3335L30.2574 43.2268L35.6087 43.8615L31.652 47.5202L32.702 52.8055L28 50.1735Z" fill="#F4C300"/>
<path d="M48 50.1735L43.298 52.8055L44.348 47.5202L40.3914 43.8615L45.7427 43.2268L48 38.3335L50.2574 43.2268L55.6087 43.8615L51.652 47.5202L52.702 52.8055L48 50.1735Z" fill="#F4C300"/>
<path d="M68 50.1735L63.298 52.8055L64.348 47.5202L60.3914 43.8615L65.7427 43.2268L68 38.3335L70.2574 43.2268L75.6087 43.8615L71.652 47.5202L72.702 52.8055L68 50.1735Z" fill="#F4C300"/>
<path d="M88 50.1735L83.298 52.8055L84.348 47.5202L80.3914 43.8615L85.7427 43.2268L88 38.3335L90.2574 43.2268L95.6087 43.8615L91.652 47.5202L92.702 52.8055L88 50.1735Z" fill="#F4C300"/>
<path d="M8.928 77.896C8.928 78.7387 8.624 79.448 8.016 80.024C7.41867 80.6 6.624 80.952 5.632 81.08V82.216C5.632 82.4293 5.568 82.6 5.44 82.728C5.32267 82.856 5.16267 82.92 4.96 82.92C4.75733 82.92 4.592 82.856 4.464 82.728C4.34667 82.6 4.288 82.4293 4.288 82.216V81.112C3.648 81.0587 3.02933 80.9307 2.432 80.728C1.84533 80.5147 1.344 80.2267 0.928 79.864C0.725333 79.7147 0.624 79.5013 0.624 79.224C0.624 79.032 0.672 78.872 0.768 78.744C0.874667 78.6053 1.00267 78.536 1.152 78.536C1.30133 78.536 1.48267 78.6053 1.696 78.744C2.72 79.4373 3.75467 79.784 4.8 79.784C5.58933 79.784 6.19733 79.624 6.624 79.304C7.06133 78.984 7.28 78.5307 7.28 77.944C7.28 77.592 7.16267 77.3093 6.928 77.096C6.704 76.872 6.416 76.696 6.064 76.568C5.72267 76.44 5.248 76.3013 4.64 76.152C3.84 75.9493 3.18933 75.7467 2.688 75.544C2.18667 75.3413 1.75467 75.0267 1.392 74.6C1.04 74.1733 0.864 73.608 0.864 72.904C0.864 72.04 1.17333 71.3093 1.792 70.712C2.42133 70.104 3.248 69.7413 4.272 69.624V68.504C4.272 68.2907 4.33067 68.12 4.448 67.992C4.576 67.864 4.74133 67.8 4.944 67.8C5.14667 67.8 5.30667 67.864 5.424 67.992C5.552 68.12 5.616 68.2907 5.616 68.504V69.624C6.16 69.6773 6.67733 69.8107 7.168 70.024C7.66933 70.2267 8.112 70.504 8.496 70.856C8.70933 71.0267 8.816 71.24 8.816 71.496C8.816 71.6773 8.76267 71.8373 8.656 71.976C8.54933 72.1147 8.42133 72.184 8.272 72.184C8.12267 72.184 7.94133 72.1147 7.728 71.976C7.26933 71.624 6.832 71.3627 6.416 71.192C6 71.0213 5.50933 70.936 4.944 70.936C4.208 70.936 3.62133 71.1067 3.184 71.448C2.74667 71.7893 2.528 72.2533 2.528 72.84C2.528 73.2347 2.65067 73.5547 2.896 73.8C3.14133 74.0453 3.44533 74.2373 3.808 74.376C4.17067 74.504 4.66667 74.6427 5.296 74.792C6.07467 74.984 6.704 75.1813 7.184 75.384C7.664 75.576 8.07467 75.8747 8.416 76.28C8.75733 76.6747 8.928 77.2133 8.928 77.896ZM14.9058 73.864C15.6098 73.864 16.2284 74.0133 16.7618 74.312C17.3058 74.6107 17.7271 75.032 18.0258 75.576C18.3244 76.12 18.4738 76.744 18.4738 77.448C18.4738 78.1627 18.3084 78.7973 17.9778 79.352C17.6471 79.9067 17.1831 80.3387 16.5858 80.648C15.9991 80.9573 15.3218 81.112 14.5538 81.112C13.8924 81.112 13.2418 81 12.6018 80.776C11.9724 80.552 11.4444 80.2427 11.0178 79.848C10.8044 79.6667 10.6978 79.4533 10.6978 79.208C10.6978 79.016 10.7511 78.856 10.8578 78.728C10.9644 78.5893 11.0924 78.52 11.2418 78.52C11.3378 78.52 11.4231 78.536 11.4978 78.568C11.5831 78.6 11.6791 78.6533 11.7858 78.728C12.2231 79.0693 12.6604 79.3307 13.0978 79.512C13.5458 79.6827 14.0151 79.768 14.5058 79.768C15.2524 79.768 15.8338 79.5707 16.2498 79.176C16.6658 78.7707 16.8738 78.2053 16.8738 77.48C16.8738 76.7867 16.6604 76.232 16.2338 75.816C15.8178 75.4 15.2578 75.192 14.5538 75.192C14.0951 75.192 13.6844 75.272 13.3218 75.432C12.9591 75.5813 12.6178 75.8213 12.2978 76.152C12.1378 76.3013 11.9458 76.376 11.7218 76.376C11.5404 76.376 11.3858 76.3227 11.2578 76.216C11.1404 76.0987 11.0818 75.9493 11.0818 75.768V70.504C11.0818 70.2587 11.1458 70.0667 11.2738 69.928C11.4124 69.7893 11.6098 69.72 11.8658 69.72H17.3698C17.6151 69.72 17.8071 69.7787 17.9458 69.896C18.0844 70.0133 18.1538 70.1733 18.1538 70.376C18.1538 70.5893 18.0844 70.7547 17.9458 70.872C17.8071 70.9893 17.6151 71.048 17.3698 71.048H12.7138V74.6C13.3004 74.1093 14.0311 73.864 14.9058 73.864ZM23.9875 81.128C22.6755 81.128 21.6728 80.6373 20.9795 79.656C20.2968 78.6747 19.9555 77.2453 19.9555 75.368C19.9555 73.48 20.2968 72.0453 20.9795 71.064C21.6728 70.0827 22.6755 69.592 23.9875 69.592C25.2995 69.592 26.2968 70.0827 26.9795 71.064C27.6728 72.0347 28.0195 73.464 28.0195 75.352C28.0195 77.24 27.6728 78.6747 26.9795 79.656C26.2968 80.6373 25.2995 81.128 23.9875 81.128ZM23.9875 79.8C24.8088 79.8 25.4115 79.4427 25.7955 78.728C26.1795 78.0133 26.3715 76.888 26.3715 75.352C26.3715 73.816 26.1795 72.696 25.7955 71.992C25.4115 71.2773 24.8088 70.92 23.9875 70.92C23.1662 70.92 22.5635 71.2773 22.1795 71.992C21.7955 72.696 21.6035 73.816 21.6035 75.352C21.6035 76.8773 21.7955 78.0027 22.1795 78.728C22.5635 79.4427 23.1662 79.8 23.9875 79.8ZM30.6853 81.08C30.3973 81.08 30.1519 80.984 29.9493 80.792C29.7573 80.6 29.6613 80.3547 29.6613 80.056C29.6613 79.7573 29.7573 79.512 29.9493 79.32C30.1519 79.1173 30.3973 79.016 30.6853 79.016C30.9733 79.016 31.2133 79.1173 31.4053 79.32C31.5973 79.512 31.6933 79.7573 31.6933 80.056C31.6933 80.3547 31.5973 80.6 31.4053 80.792C31.2133 80.984 30.9733 81.08 30.6853 81.08ZM37.3938 81.128C36.0818 81.128 35.0791 80.6373 34.3858 79.656C33.7031 78.6747 33.3618 77.2453 33.3618 75.368C33.3618 73.48 33.7031 72.0453 34.3858 71.064C35.0791 70.0827 36.0818 69.592 37.3938 69.592C38.7058 69.592 39.7031 70.0827 40.3858 71.064C41.0791 72.0347 41.4258 73.464 41.4258 75.352C41.4258 77.24 41.0791 78.6747 40.3858 79.656C39.7031 80.6373 38.7058 81.128 37.3938 81.128ZM37.3938 79.8C38.2151 79.8 38.8178 79.4427 39.2018 78.728C39.5858 78.0133 39.7778 76.888 39.7778 75.352C39.7778 73.816 39.5858 72.696 39.2018 71.992C38.8178 71.2773 38.2151 70.92 37.3938 70.92C36.5724 70.92 35.9698 71.2773 35.5858 71.992C35.2018 72.696 35.0098 73.816 35.0098 75.352C35.0098 76.8773 35.2018 78.0027 35.5858 78.728C35.9698 79.4427 36.5724 79.8 37.3938 79.8ZM46.9875 81.128C45.6755 81.128 44.6728 80.6373 43.9795 79.656C43.2968 78.6747 42.9555 77.2453 42.9555 75.368C42.9555 73.48 43.2968 72.0453 43.9795 71.064C44.6728 70.0827 45.6755 69.592 46.9875 69.592C48.2995 69.592 49.2968 70.0827 49.9795 71.064C50.6728 72.0347 51.0195 73.464 51.0195 75.352C51.0195 77.24 50.6728 78.6747 49.9795 79.656C49.2968 80.6373 48.2995 81.128 46.9875 81.128ZM46.9875 79.8C47.8088 79.8 48.4115 79.4427 48.7955 78.728C49.1795 78.0133 49.3715 76.888 49.3715 75.352C49.3715 73.816 49.1795 72.696 48.7955 71.992C48.4115 71.2773 47.8088 70.92 46.9875 70.92C46.1662 70.92 45.5635 71.2773 45.1795 71.992C44.7955 72.696 44.6035 73.816 44.6035 75.352C44.6035 76.8773 44.7955 78.0027 45.1795 78.728C45.5635 79.4427 46.1662 79.8 46.9875 79.8Z" fill="#1A1A1A"/>
</svg>
